<svg xmlns="http://www.w3.org/2000/svg" viewBox="0 0 72 72" id="doughnut"><title>doughnut</title><g id="Layer_2" data-name="Layer 2"><g id="Layer_1-2" data-name="Layer 1"><path d="M27.25,11.25a1.3,1.3,0,1,1,0,2.6,1.26,1.26,0,0,1-1.3-1.3A1.32,1.32,0,0,1,27.25,11.25Z" transform="translate(-0.25 -0.25)" fill="#fff"/><path d="M21.85,12.75a2,2,0,0,1-.5,2.8,2,2,0,0,1-2.8-.5,2,2,0,0,1,3.3-2.3Z" transform="translate(-0.25 -0.25)" fill="#fff"/><path d="M68.25,35.25h-1.5a6.49,6.49,0,0,0-6.5,6.5A2.38,2.38,0,0,1,58,44.23a2.42,2.42,0,0,1-2.73-2.48,3.54,3.54,0,0,0-3.5-3.5H48a13.55,13.55,0,0,0,.2-2,12,12,0,0,0-11.9-12,11.77,11.77,0,0,0-10.3,6h-4.2a4.48,4.48,0,0,0-4.5,4.5A2.38,2.38,0,0,1,15,37.23a2.42,2.42,0,0,1-2.73-2.48,7.49,7.49,0,0,0-6.7-7.5,32,32,0,0,1,62.7,8Zm-6.6-1.1a2,2,0,0,0-4-.2,2.08,2.08,0,0,0,1.9,2.1A2,2,0,0,0,61.65,34.15Zm.3-8.5a1.35,1.35,0,0,0-2.7-.1,1.49,1.49,0,0,0,1.3,1.4A1.35,1.35,0,0,0,62,25.65Zm-5.7-9.4a2,2,0,1,0-2,2A2,2,0,0,0,56.25,16.25Zm-2.9,9a3,3,0,0,0-3-3,3,3,0,0,0,0,6A3,3,0,0,0,53.35,25.25Zm-6.8-13a1.26,1.26,0,0,0,1.3-1.3,1.3,1.3,0,1,0-2.6,0A1.26,1.26,0,0,0,46.55,12.25Zm-3.2,6a2,2,0,1,0-2,2A2,2,0,0,0,43.35,18.25Zm-7-6.1a3.08,3.08,0,0,0,.8-4.3,3.09,3.09,0,1,0-5.1,3.5A3.08,3.08,0,0,0,36.35,12.15ZM29,18.75a2,2,0,0,0-1.9-2.1,2,2,0,0,0-2.1,1.9,2,2,0,0,0,1.9,2.1A2,2,0,0,0,29,18.75Zm-.4-6.2a1.3,1.3,0,0,0-2.6,0,1.26,1.26,0,0,0,1.3,1.3A1.32,1.32,0,0,0,28.55,12.55Zm-7.2,3a2,2,0,1,0-2.8-.5A2,2,0,0,0,21.35,15.55Zm-.7,12.1a1.3,1.3,0,0,0,.4-1.8,1.42,1.42,0,0,0-1.9-.4,1.3,1.3,0,0,0-.4,1.8A1.44,1.44,0,0,0,20.65,27.65Zm-6.5-3a2.6,2.6,0,1,0-2.7,2.5A2.59,2.59,0,0,0,14.15,24.65Z" transform="translate(-0.25 -0.25)" fill="#fb2768"/><path d="M59.75,32.05a2,2,0,1,1-.2,4,2.08,2.08,0,0,1-1.9-2.1A2,2,0,0,1,59.75,32.05Z" transform="translate(-0.25 -0.25)" fill="#fff"/><path d="M60.65,24.25a1.35,1.35,0,1,1-.1,2.7,1.49,1.49,0,0,1-1.3-1.4A1.35,1.35,0,0,1,60.65,24.25Z" transform="translate(-0.25 -0.25)" fill="#fff"/><circle cx="54" cy="16" r="2" fill="#fff"/><path d="M50.35,22.25a3,3,0,0,1,0,6,3,3,0,0,1,0-6Z" transform="translate(-0.25 -0.25)" fill="#fff"/><path d="M47.85,11a1.3,1.3,0,0,1-2.6,0,1.3,1.3,0,1,1,2.6,0Z" transform="translate(-0.25 -0.25)" fill="#fff"/><circle cx="41.1" cy="18" r="2" fill="#fff"/><path d="M37.15,7.85a3.09,3.09,0,1,1-5.1,3.5,3.09,3.09,0,1,1,5.1-3.5Z" transform="translate(-0.25 -0.25)" fill="#fff"/><path d="M27.05,16.65a2,2,0,0,1,1.9,2.1,2,2,0,0,1-2.1,1.9,2,2,0,0,1-1.9-2.1A2,2,0,0,1,27.05,16.65Z" transform="translate(-0.25 -0.25)" fill="#fff"/><path d="M21.05,25.85a1.3,1.3,0,0,1-.4,1.8,1.44,1.44,0,0,1-1.9-.4,1.3,1.3,0,0,1,.4-1.8A1.42,1.42,0,0,1,21.05,25.85Z" transform="translate(-0.25 -0.25)" fill="#fff"/><path d="M11.65,22A2.6,2.6,0,1,1,9,24.45,2.59,2.59,0,0,1,11.65,22Z" transform="translate(-0.25 -0.25)" fill="#fff"/><path d="M66.75,37.25h1.5a32,32,0,0,1-64-1,32.66,32.66,0,0,1,.8-7,5.43,5.43,0,0,1,5.2,5.5,4.33,4.33,0,0,0,4.82,4.45,4.27,4.27,0,0,0,4.18-4.45,2.48,2.48,0,0,1,2.5-2.5h3.3a13.44,13.44,0,0,0-.7,4,12,12,0,0,0,11.9,12,11.78,11.78,0,0,0,11.2-8h4.3a1.54,1.54,0,0,1,1.5,1.5,4.33,4.33,0,0,0,4.82,4.45,4.27,4.27,0,0,0,4.18-4.45A4.48,4.48,0,0,1,66.75,37.25Z" transform="translate(-0.25 -0.25)" fill="#f2ca79"/><path d="M36.25.25a36,36,0,1,1-36,36A36,36,0,0,1,36.25.25Zm30.5,35h1.5a32,32,0,0,0-62.7-8,7.49,7.49,0,0,1,6.7,7.5A2.42,2.42,0,0,0,15,37.23l.09,2a4.33,4.33,0,0,1-4.82-4.45,5.43,5.43,0,0,0-5.2-5.5,32.66,32.66,0,0,0-.8,7,32,32,0,0,0,64,1h-1.5a4.48,4.48,0,0,0-4.5,4.5,4.27,4.27,0,0,1-4.18,4.45l-.09-2a2.38,2.38,0,0,0,2.27-2.48A6.49,6.49,0,0,1,66.75,35.25Z" transform="translate(-0.25 -0.25)"/><path d="M58,44.23l.09,2a4.33,4.33,0,0,1-4.82-4.45,1.54,1.54,0,0,0-1.5-1.5h-4.3a11.78,11.78,0,0,1-11.2,8,12,12,0,0,1-11.9-12,13.44,13.44,0,0,1,.7-4h-3.3a2.48,2.48,0,0,0-2.5,2.5,4.27,4.27,0,0,1-4.18,4.45l-.09-2a2.38,2.38,0,0,0,2.27-2.48,4.48,4.48,0,0,1,4.5-4.5H26a11.77,11.77,0,0,1,10.3-6,12,12,0,0,1,11.9,12,13.55,13.55,0,0,1-.2,2h3.8a3.54,3.54,0,0,1,3.5,3.5A2.42,2.42,0,0,0,58,44.23Zm-13.83-8a7.9,7.9,0,1,0-7.9,8A8,8,0,0,0,44.15,36.25Z" transform="translate(-0.25 -0.25)"/></g></g></svg>
