<?xml version="1.0" encoding="utf-8"?>
<!-- Generator: Adobe Illustrator 21.1.0, SVG Export Plug-In . SVG Version: 6.00 Build 0)  -->
<svg version="1.1" id="Layer_1" xmlns="http://www.w3.org/2000/svg" xmlns:xlink="http://www.w3.org/1999/xlink" x="0px" y="0px"
	 viewBox="0 0 100 125" style="enable-background:new 0 0 100 125;" xml:space="preserve">
<style type="text/css">
	.st0{fill:#D6D6D6;}
	.st1{fill:#B3B3B3;}
	.st2{fill:#FFFFFF;}
</style>
<g id="XMLID_1_">
	<g>
		<path class="st0" d="M82,51h-1.5c-3.6,0-6.5,2.9-6.5,6.5c0,1.6-1.1,2.4-2.3,2.5c-1.3,0.1-2.7-0.7-2.7-2.5c0-1.9-1.6-3.5-3.5-3.5
			h-3.8c0.1-0.7,0.2-1.3,0.2-2c0-6.6-5.3-12-11.9-12c-4.4,0-8.3,2.4-10.3,6h-4.2C33,46,31,48,31,50.5c0,1.6-1.1,2.4-2.3,2.5
			c-1.3,0.1-2.7-0.7-2.7-2.5c0-3.9-2.9-7.1-6.7-7.5C23.2,29.7,35.4,20,50,20C67.3,20,81.4,33.8,82,51z M75.4,49.9
			c0.1-1.1-0.8-2.1-1.9-2.1c-1.1-0.1-2.1,0.8-2.1,1.9c0,1.1,0.8,2,1.9,2.1C74.4,51.9,75.4,51,75.4,49.9z M75.7,41.4
			c0-0.8-0.6-1.4-1.3-1.4c-0.8,0-1.4,0.6-1.4,1.3s0.6,1.3,1.3,1.4C75.1,42.7,75.7,42.1,75.7,41.4z M70,32c0-1.1-0.9-2-2-2
			s-2,0.9-2,2c0,1.1,0.9,2,2,2S70,33.1,70,32z M67.1,41c0-1.7-1.3-3-3-3c-1.7,0-3,1.4-3,3s1.3,3,3,3C65.8,44,67.1,42.7,67.1,41z
			 M60.3,28c0.8,0,1.3-0.6,1.3-1.3c0-0.7-0.6-1.3-1.3-1.3S59,26,59,26.7C59,27.4,59.5,28,60.3,28z M57.1,34c0-1.1-0.9-2-2-2
			c-1.1,0-2,0.9-2,2s0.9,2,2,2C56.2,36,57.1,35.1,57.1,34z M50.1,27.9c1.4-1,1.8-2.9,0.8-4.3s-2.9-1.7-4.3-0.8
			c-1.4,1-1.7,2.9-0.8,4.3C46.8,28.5,48.7,28.9,50.1,27.9z M42.7,34.5c0.1-1.1-0.8-2-1.9-2.1c-1.1-0.1-2.1,0.8-2.1,1.9
			c-0.1,1.1,0.8,2,1.9,2.1C41.7,36.5,42.7,35.6,42.7,34.5z M42.3,28.3c0-0.7-0.6-1.3-1.3-1.3s-1.3,0.6-1.3,1.3
			c0,0.8,0.6,1.3,1.3,1.3S42.3,29,42.3,28.3z M35.1,31.3c0.9-0.6,1.1-1.9,0.5-2.8c-0.6-0.9-1.9-1.1-2.8-0.5
			c-0.9,0.6-1.1,1.9-0.5,2.8C32.9,31.7,34.2,32,35.1,31.3z M34.4,43.4c0.6-0.4,0.8-1.2,0.4-1.8c-0.4-0.6-1.3-0.8-1.9-0.4
			c-0.6,0.4-0.8,1.2-0.4,1.8C33,43.6,33.8,43.8,34.4,43.4z M27.9,40.4c0-1.5-1.1-2.7-2.5-2.7c-1.5,0-2.7,1.1-2.7,2.5
			c0,1.5,1.1,2.7,2.5,2.7C26.7,42.9,27.9,41.8,27.9,40.4z"/>
		<path class="st1" d="M50,16c19.9,0,36,16.1,36,36S69.9,88,50,88S14,71.9,14,52S30.1,16,50,16z M80.5,51H82
			c-0.6-17.2-14.7-31-32-31c-14.6,0-26.8,9.7-30.7,23c3.8,0.4,6.7,3.6,6.7,7.5c0,1.8,1.4,2.6,2.7,2.5l0.1,2
			c-2.4,0.2-4.8-1.3-4.8-4.5c0-3-2.3-5.4-5.2-5.5c-0.5,2.3-0.8,4.6-0.8,7c0,17.7,14.3,32,32,32c17.3,0,31.4-13.8,32-31h-1.5
			C78,53,76,55,76,57.5c0,2.8-2,4.3-4.2,4.5l-0.1-2c1.2-0.1,2.3-0.9,2.3-2.5C74,53.9,76.9,51,80.5,51z"/>
		<path class="st2" d="M73.5,47.8c1.1,0,2,1,1.9,2.1c0,1.1-1,2-2.1,1.9c-1.1-0.1-1.9-1-1.9-2.1C71.4,48.6,72.4,47.7,73.5,47.8z"/>
		<path class="st2" d="M74.4,40c0.7,0,1.3,0.6,1.3,1.4c0,0.7-0.6,1.3-1.4,1.3C73.6,42.6,73,42,73,41.3S73.6,40,74.4,40z"/>
		<path class="st1" d="M71.7,60l0.1,2c-2.3,0.2-4.8-1.3-4.8-4.5c0-0.8-0.7-1.5-1.5-1.5h-4.3c-1.6,4.7-6,8-11.2,8
			c-6.6,0-11.9-5.4-11.9-12c0-1.4,0.3-2.7,0.7-4h-3.3c-1.4,0-2.5,1.1-2.5,2.5c0,2.8-2,4.3-4.2,4.5l-0.1-2c1.2-0.1,2.3-0.9,2.3-2.5
			c0-2.5,2-4.5,4.5-4.5h4.2c2-3.6,5.9-6,10.3-6c6.6,0,11.9,5.4,11.9,12c0,0.7-0.1,1.3-0.2,2h3.8c1.9,0,3.5,1.6,3.5,3.5
			C69,59.3,70.4,60.1,71.7,60z M57.9,52c0-4.4-3.6-8-7.9-8s-7.9,3.6-7.9,8s3.6,8,7.9,8S57.9,56.4,57.9,52z"/>
		<circle class="st2" cx="68" cy="32" r="2"/>
		<path class="st2" d="M64.1,38c1.7,0,3,1.3,3,3s-1.3,3-3,3c-1.7,0-3-1.4-3-3S62.4,38,64.1,38z"/>
		<path class="st2" d="M61.6,26.7c0,0.7-0.5,1.3-1.3,1.3S59,27.4,59,26.7c0-0.7,0.6-1.3,1.3-1.3S61.6,26,61.6,26.7z"/>
		<circle class="st2" cx="55.1" cy="34" r="2"/>
		<path class="st2" d="M50.9,23.6c1,1.4,0.6,3.3-0.8,4.3c-1.4,1-3.3,0.6-4.3-0.8c-0.9-1.4-0.6-3.3,0.8-4.3
			C48,21.9,49.9,22.2,50.9,23.6z"/>
		<path class="st2" d="M40.8,32.4c1.1,0.1,2,1,1.9,2.1c0,1.1-1,2-2.1,1.9c-1.1-0.1-2-1-1.9-2.1C38.7,33.2,39.7,32.3,40.8,32.4z"/>
		<path class="st2" d="M41,27c0.7,0,1.3,0.6,1.3,1.3c0,0.7-0.6,1.3-1.3,1.3s-1.3-0.5-1.3-1.3C39.7,27.6,40.3,27,41,27z"/>
		<path class="st2" d="M35.6,28.5c0.6,0.9,0.4,2.2-0.5,2.8c-0.9,0.7-2.2,0.4-2.8-0.5c-0.6-0.9-0.4-2.2,0.5-2.8
			C33.7,27.4,35,27.6,35.6,28.5z"/>
		<path class="st2" d="M34.8,41.6c0.4,0.6,0.2,1.4-0.4,1.8c-0.6,0.4-1.4,0.2-1.9-0.4c-0.4-0.6-0.2-1.4,0.4-1.8
			C33.5,40.8,34.4,41,34.8,41.6z"/>
		<path class="st2" d="M25.4,37.7c1.4,0,2.5,1.2,2.5,2.7c0,1.4-1.2,2.5-2.7,2.5c-1.4,0-2.5-1.2-2.5-2.7
			C22.7,38.8,23.9,37.7,25.4,37.7z"/>
	</g>
	<g>
	</g>
</g>
</svg>
